<?xml version="1.0" standalone="no"?>
<!DOCTYPE svg PUBLIC "-//W3C//DTD SVG 20010904//EN"
 "http://www.w3.org/TR/2001/REC-SVG-20010904/DTD/svg10.dtd">
<svg version="1.0" xmlns="http://www.w3.org/2000/svg"
 width="100.000000pt" height="100.000000pt" viewBox="0 0 100.000000 100.000000"
 preserveAspectRatio="xMidYMid meet">

<g transform="translate(0.000000,100.000000) scale(0.100000,-0.100000)"
fill="#000000" stroke="none">
<path d="M435 876 c-42 -18 -93 -79 -101 -121 -19 -104 64 -205 169 -205 84 0
167 84 167 170 0 116 -129 202 -235 156z m124 -44 c38 -20 71 -73 71 -112 0
-62 -68 -130 -130 -130 -39 0 -92 33 -112 71 -10 18 -18 45 -18 59 0 14 8 41
18 59 20 38 73 71 112 71 14 0 41 -8 59 -18z"/>
<path d="M353 436 c-203 -47 -280 -157 -175 -253 124 -113 461 -123 614 -17
121 84 74 199 -104 256 -83 26 -250 33 -335 14z m270 -41 c37 -8 91 -27 120
-42 105 -57 100 -114 -13 -171 -134 -67 -336 -67 -470 0 -80 40 -103 74 -80
115 47 85 271 135 443 98z"/>
</g>
</svg>
